<svg width="161" height="169" viewBox="0 0 161 169" fill="none" xmlns="http://www.w3.org/2000/svg">
<g id="ScheduleIcon-web">
<rect x="2" y="18" width="158" height="150" rx="24" fill="white" fill-opacity="0.1"/>
<rect x="2" y="18" width="158" height="150" rx="24" stroke="black" stroke-width="2"/>
<line id="Line 5" x1="0.993507" y1="55" x2="160.993" y2="53.9611" stroke="black" stroke-width="2"/>
<circle id="Ellipse 4" cx="29.5" cy="77.5" r="12.5" fill="#D9D9D9"/>
<circle id="Ellipse 5" cx="29.5" cy="109.5" r="12.5" fill="#D9D9D9"/>
<circle id="Ellipse 6" cx="29.5" cy="142.5" r="12.5" fill="#D9D9D9"/>
<circle id="Ellipse 7" cx="64.5" cy="142.5" r="12.5" fill="#D9D9D9"/>
<circle id="Ellipse 8" cx="64.5" cy="109.5" r="12.5" fill="#D9D9D9"/>
<circle id="Ellipse 9" cx="64.5" cy="76.5" r="12.5" fill="#D9D9D9"/>
<circle id="Ellipse 10" cx="98.5" cy="77.5" r="12.5" fill="#D9D9D9"/>
<circle id="Ellipse 11" cx="132.5" cy="78.5" r="12.5" fill="#D9D9D9"/>
<circle id="Ellipse 12" cx="98.5" cy="109.5" r="12.5" fill="#D9D9D9"/>
<circle id="Ellipse 13" cx="98.5" cy="142.5" r="12.5" fill="#D9D9D9"/>
<circle id="Ellipse 14" cx="132.5" cy="142.5" r="12.5" fill="#D9D9D9"/>
<circle id="Ellipse 15" cx="132.5" cy="109.5" r="12.5" fill="#D9D9D9"/>
<g id="Frame 21">
<path d="M26 18H136C149.255 18 160 28.7452 160 42V55H2V42C2 28.7452 12.7452 18 26 18Z" fill="#1BAFA9" fill-opacity="0.8"/>
<path d="M26 18H136C149.255 18 160 28.7452 160 42V55H2V42C2 28.7452 12.7452 18 26 18Z" stroke="black" stroke-width="2"/>
<g id="Frame 23">
<rect x="32" y="1" width="15" height="35" rx="7.5" fill="white"/>
<rect x="32" y="1" width="15" height="35" rx="7.5" stroke="black" stroke-width="2"/>
</g>
<g id="Frame 22">
<rect x="113" y="1" width="15" height="35" rx="7.5" fill="white"/>
<rect x="113" y="1" width="15" height="35" rx="7.5" stroke="black" stroke-width="2"/>
</g>
</g>
</g>
</svg>
